<svg version="1.1" xmlns="http://www.w3.org/2000/svg" viewBox="-30.354501101166033 -64.71788262540241 60.70900220233208 121.27326987997452" fill="none" stroke="black" stroke-width="0.6%" vector-effect="non-scaling-stroke">
    <path d="M 20.03028 -3.06129 L -8.29744 -62.24553 L -8.29744 -57.97185" />
    <path d="M 18.07481 -2.87311 L -10.25291 -62.05736" />
    <path d="M 20.03028 -3.06129 L 18.07481 -2.87311" />
    <path d="M 24.46582 -2.34163 L 14.68845 -1.40076 L -14.68845 -62.77701 L -14.68845 -53.27114" />
    <path d="M 24.46582 -2.34163 L -4.91108 -63.71788 L -14.68845 -62.77701" />
    <path d="M -8.29744 -62.24553 L -10.25291 -62.05736" />
    <path d="M 0.0224 31.29497 L 29.3545 28.47237 L 29.3545 21.32164 L 24.46582 11.10786" />
    <path d="M 0.0224 31.29497 L 0.0224 24.14424 L 14.68845 22.73294 L -14.68845 -38.64331 L -29.3545 -37.23201 L 0.0224 24.14424" />
    <path d="M 14.68845 22.73294 L 14.68845 -1.40076" />
    <path d="M 24.46582 21.79208 L 24.46582 -2.34163" />
    <path d="M 24.46582 21.79208 L 29.3545 21.32164" />
    <path d="M -14.68845 -45.23419 L -14.68845 -38.64331" />
    <path d="M -11.75076 -47.70098 A 4 0.75024 84.50341 0 0 -12.97324 -53.4362 L -15.90645 -53.15394 A 4 0.75024 264.50341 0 1 -14.68397 -47.41872 A 4 0.75024 264.50341 0 1 -15.14016 -45.19072 A 4 0.75024 264.50341 1 1 -15.90645 -53.15394" />
    <path d="M -12.20695 -45.47298 A 4 0.75024 84.50341 0 0 -11.75076 -47.70098" />
    <path d="M 0.83934 -21.39687 A 4 0.75024 84.50341 0 0 -0.38315 -27.13209 L -3.31636 -26.84983 A 4 0.75024 264.50341 0 1 -2.09387 -21.11461 A 4 0.75024 264.50341 0 1 -2.55006 -18.88661 A 4 0.75024 264.50341 1 1 -3.31636 -26.84983" />
    <path d="M 0.38315 -19.16887 A 4 0.75024 84.50341 0 0 0.83934 -21.39687" />
    <path d="M 13.42944 4.90724 A 4 0.75024 84.50341 0 0 12.20695 -0.82798 L 9.27374 -0.54572 A 4 0.75024 264.50341 0 1 10.49623 5.1895 A 4 0.75024 264.50341 0 1 10.04003 7.4175 A 4 0.75024 264.50341 1 1 9.27374 -0.54572" />
    <path d="M 12.97324 7.13524 A 4 0.75024 84.50341 0 0 13.42944 4.90724" />
    <path d="M -29.3545 -30.08128 L -29.3545 -37.23201" />
    <path d="M -29.3545 -30.08128 L 0.0224 31.29497" />
    <path d="M -20.92823 -28.6611 A 3.8 1.70386 180 0 0 -13.74359 -28.6611 L -12.51463 -30.25872 A 5.1 2.28676 0 0 1 -22.15718 -30.25872 A 5.1 2.28676 0 0 1 -18.40606 -33.2402 A 5.1 2.28676 0 0 1 -12.51463 -30.25872" />
    <path d="M -15.68235 -17.70105 A 3.8 1.70386 180 0 0 -8.49771 -17.70105 L -7.26876 -19.29867 A 5.1 2.28676 0 0 1 -16.9113 -19.29867 A 5.1 2.28676 0 0 1 -13.16019 -22.28015 A 5.1 2.28676 0 0 1 -7.26876 -19.29867" />
    <path d="M -10.43648 -6.74101 A 3.8 1.70386 180 0 0 -3.25184 -6.74101 L -2.02289 -8.33863 A 5.1 2.28676 0 0 1 -11.66543 -8.33863 A 5.1 2.28676 0 0 1 -7.91432 -11.32011 A 5.1 2.28676 0 0 1 -2.02289 -8.33863" />
    <path d="M -5.1906 4.21904 A 3.8 1.70386 180 0 0 1.99404 4.21904 L 3.22299 2.62142 A 5.1 2.28676 0 0 1 -6.41956 2.62142 A 5.1 2.28676 0 0 1 -2.66844 -0.36006 A 5.1 2.28676 0 0 1 3.22299 2.62142" />
    <path d="M 0.05527 15.17908 A 3.8 1.70386 180 0 0 7.23991 15.17908 L 8.46886 13.58146 A 5.1 2.28676 0 0 1 -1.17368 13.58146 A 5.1 2.28676 0 0 1 2.57743 10.59998 A 5.1 2.28676 0 0 1 8.46886 13.58146" />
    <path d="M 2.73693 -49.48492 A 3.15 0.59081 84.50341 0 0 1.77423 -54.0014 L -0.17083 -53.81423" />
    <path d="M 2.59454 -48.03663 A 3.15 0.59081 84.50341 0 0 2.73693 -49.48492" />
    <path d="M 15.32703 -23.18081 A 3.15 0.59081 84.50341 0 0 14.36432 -27.6973 L 12.41926 -27.51012" />
    <path d="M 15.18463 -21.73252 A 3.15 0.59081 84.50341 0 0 15.32703 -23.18081" />
    <path d="M 27.91713 3.12329 A 3.15 0.59081 84.50341 0 0 26.95442 -1.39319 L 24.46582 -1.15371" />
    <path d="M 27.55788 4.87784 A 3.15 0.59081 84.50341 0 0 27.91713 3.12329" />
    <path d="M -19.31591 10.8274 A 1.98 0.8878 180 1 0 -15.35591 10.8274 L -15.35591 -0.83445" />
    <path d="M -14.07003 21.78745 A 1.98 0.8878 180 1 0 -10.11003 21.78745 L -10.11003 10.1256" />
    <path d="M -8.82416 32.7475 A 1.98 0.8878 180 1 0 -4.86416 32.7475 L -4.86416 21.08564" />
    <path d="M -3.57828 43.70754 A 1.98 0.8878 180 1 0 0.38172 43.70754 L 0.38172 31.26039" />
    <path d="M 1.66759 54.66759 A 1.98 0.8878 180 1 0 5.62759 54.66759 L 5.62759 30.75559" />
    <path d="M 27.55788 4.87784 L 24.46582 5.17539" />
    <path d="M -12.20695 -45.47298 L -15.14016 -45.19072" />
    <path d="M 0.38315 -19.16887 L -2.55006 -18.88661" />
    <path d="M 12.97324 7.13524 L 10.04003 7.4175" />
    <path d="M -19.31591 10.8274 L -19.31591 -9.10795" />
    <path d="M -14.07003 21.78745 L -14.07003 1.85209" />
    <path d="M -8.82416 32.7475 L -8.82416 12.81214" />
    <path d="M -3.57828 43.70754 L -3.57828 23.77218" />
    <path d="M 1.66759 54.66759 L 1.66759 31.13665" />
    <path d="M -20.92823 -28.6611 L -22.15718 -30.25872" />
    <path d="M -15.68235 -17.70105 L -16.9113 -19.29867" />
    <path d="M -10.43648 -6.74101 L -11.66543 -8.33863" />
    <path d="M -5.1906 4.21904 L -6.41956 2.62142" />
    <path d="M 0.05527 15.17908 L -1.17368 13.58146" />
</svg>