<svg version="1.1" xmlns="http://www.w3.org/2000/svg" viewBox="-48.100750153218335 -62.032443602662426 96.20150030643667 122.3139737443347" fill="none" stroke="black" stroke-width="0.6%" vector-effect="non-scaling-stroke">
    <path d="M 1.8374 17.67506 A 4.45 1.91391 180 0 0 10.29993 17.67506 L 10.91798 16.85884 A 5.1 2.19347 360 0 1 1.21935 16.85884 A 5.1 2.19347 360 0 1 4.35221 14.1141 A 5.1 2.19347 360 0 1 10.91798 16.85884" />
    <path d="M -28.26751 -37.0153 L -47.10075 -34.12026 L 0.01765 22.57992 L 18.85089 19.68489 L 18.85089 -2.88474 L -28.26751 -59.58492 L -28.26751 -50.03669" />
    <path d="M -28.26751 -37.0153 L 18.85089 19.68489" />
    <path d="M -38.54979 -30.9251 A 4.45 1.91391 180 0 0 -30.08726 -30.9251 L -29.46921 -31.74131 A 5.1 2.19347 360 0 1 -39.16784 -31.74131 A 5.1 2.19347 360 0 1 -36.03498 -34.48606 A 5.1 2.19347 360 0 1 -29.46921 -31.74131" />
    <path d="M -18.3562 -6.62502 A 4.45 1.91391 180 0 0 -9.89367 -6.62502 L -9.27562 -7.44124 A 5.1 2.19347 360 0 1 -18.97425 -7.44124 A 5.1 2.19347 360 0 1 -15.84139 -10.18598 A 5.1 2.19347 360 0 1 -9.27562 -7.44124" />
    <path d="M -0.01765 -41.35785 L -2.21981 -41.01934" />
    <path d="M -18.85089 -61.03244 L -28.26751 -59.58492" />
    <path d="M -28.26751 -43.41618 L -28.26751 -37.0153" />
    <path d="M -47.10075 -25.09241 L -47.10075 -34.12026" />
    <path d="M 0.01765 31.60777 L 0.01765 22.57992" />
    <path d="M -47.10075 -25.09241 L 0.01765 31.60777 L 47.10075 24.37018 L 47.10075 15.34233 L -0.01765 -41.35785" />
    <path d="M 28.26751 -4.33226 L 18.85089 -2.88474" />
    <path d="M 28.26751 18.23737 L 28.26751 -4.33226 L -18.85089 -61.03244" />
    <path d="M 28.26751 18.23737 L 47.10075 15.34233" />
    <path d="M -23.55567 -44.88706 A 4 1.21537 81.26093 0 0 -25.50965 -50.46062 L -28.33463 -50.02637 A 4 1.21537 261.26093 0 1 -26.38065 -44.4528 A 4 1.21537 261.26093 0 1 -27.11916 -42.11924 A 4 1.21537 261.26093 0 1 -28.33463 -50.02637" />
    <path d="M -24.29417 -42.5535 A 4 1.21537 81.26093 0 0 -23.55567 -44.88706" />
    <path d="M -3.36207 -20.58698 A 4 1.21537 81.26093 0 0 -5.31605 -26.16054 L -8.14104 -25.72629 A 4 1.21537 261.26093 0 1 -6.18706 -20.15272 A 4 1.21537 261.26093 0 1 -6.92556 -17.81916 A 4 1.21537 261.26093 0 1 -8.14104 -25.72629" />
    <path d="M -4.10057 -18.25342 A 4 1.21537 81.26093 0 0 -3.36207 -20.58698" />
    <path d="M 16.83153 3.7131 A 4 1.21537 81.26093 0 0 14.87755 -1.86046 L 12.05256 -1.42621 A 4 1.21537 261.26093 0 1 14.00654 4.14736 A 4 1.21537 261.26093 0 1 13.26804 6.48092 A 4 1.21537 261.26093 0 1 12.05256 -1.42621" />
    <path d="M 16.09303 6.04666 A 4 1.21537 81.26093 0 0 16.83153 3.7131" />
    <path d="M 30.08726 13.33251 A 4.45 1.91391 180 0 0 38.54979 13.33251 L 39.16784 12.51629 A 5.1 2.19347 360 0 1 29.46921 12.51629 A 5.1 2.19347 360 0 1 32.60207 9.77155 A 5.1 2.19347 360 0 1 39.16784 12.51629" />
    <path d="M 23.65946 -4.76575 L 21.77614 -4.47625 L -23.65946 -59.15143" />
    <path d="M -21.77614 -59.44093 L -23.65946 -59.15143" />
    <path d="M 23.65946 -4.76575 L -21.77614 -59.44093 L -21.77614 -56.88512" />
    <path d="M -36.29853 9.82979 A 1.98 0.85158 180 0 0 -32.33853 9.82979 L -32.33853 -7.32821" />
    <path d="M -16.10493 34.12987 A 1.98 0.85158 180 0 0 -12.14493 34.12987 L -12.14493 16.97187" />
    <path d="M 4.08867 58.42995 A 1.98 0.85158 180 0 0 8.04867 58.42995 L 8.04867 30.37325" />
    <path d="M 12.14493 29.78731 A 1.98 0.85158 180 0 0 16.10493 29.78731 L 16.10493 29.13484" />
    <path d="M 32.33853 54.08739 A 1.98 0.85158 180 0 0 36.29853 54.08739 L 36.29853 26.0307" />
    <path d="M -10.38133 -50.84055 A 3.15 0.9571 81.26093 0 0 -11.17262 -51.79276" />
    <path d="M 9.81227 -26.54048 A 3.15 0.9571 81.26093 0 0 9.02097 -27.49268" />
    <path d="M 30.67038 1.19758 A 3.15 0.9571 81.26093 0 0 29.13162 -3.19161 L 28.26751 -3.05878" />
    <path d="M 30.08881 3.03525 A 3.15 0.9571 81.26093 0 0 30.67038 1.19758" />
    <path d="M 1.8374 17.67506 L 1.21935 16.85884" />
    <path d="M -38.54979 -30.9251 L -39.16784 -31.74131" />
    <path d="M -18.3562 -6.62502 L -18.97425 -7.44124" />
    <path d="M -24.29417 -42.5535 L -27.11916 -42.11924" />
    <path d="M -4.10057 -18.25342 L -6.92556 -17.81916" />
    <path d="M 16.09303 6.04666 L 13.26804 6.48092" />
    <path d="M -36.29853 9.82979 L -36.29853 -12.0935" />
    <path d="M -16.10493 34.12987 L -16.10493 12.20658" />
    <path d="M 4.08867 58.42995 L 4.08867 30.98198" />
    <path d="M 12.14493 29.78731 L 12.14493 29.74357" />
    <path d="M 32.33853 54.08739 L 32.33853 26.63943" />
    <path d="M 30.08726 13.33251 L 29.46921 12.51629" />
    <path d="M 30.08881 3.03525 L 28.26751 3.31522" />
</svg>